# xmcd CD database file
#
# Track frame offsets:
#	150
#	8316
#	23246
#	39996
#	60836
#	87586
#	100814
#	121692
#	134145
#	146657
#	161221
#	171725
#	182131
#	196957
#	216162
#
# Disc length: 3066 seconds
#
# Revision: 1
# Processed by: cddbd v1.4PL0 Copyright (c) Steve Scherf et al.
# Submitted via: CDex 1.50
#
DISCID=d00bf80f
DTITLE=Dr. John - Zu Zu Man
DYEAR=2000
DGENRE=Blues
TTITLE0=New Orleans 
TTITLE1=Zu Zu Man 
TTITLE2=Time Has Come 
TTITLE3=Mean Cheatin Woman 
TTITLE4=Bring Your Love 
TTITLE5=Helpin' Hand
TTITLE6=Just Like A Mirror
TTITLE7=Go Ahead On
TTITLE8=Cat And Mouse Game
TTITLE9=Make Your Own
TTITLE10=Trader John
TTITLE11=One Night Late
TTITLE12=Tipitina
TTITLE13=Shoo Ra
TTITLE14=She's Just A Square
EXTD=YEAR: 2000
EXTT0=
EXTT1=
EXTT2=
EXTT3=
EXTT4=
EXTT5=
EXTT6=
EXTT7=
EXTT8=
EXTT9=
EXTT10=
EXTT11=
EXTT12=
EXTT13=
EXTT14=
PLAYORDER=
